<!--?xml version="1.0" standalone="no"?-->
              <svg id="sw-js-blob-svg" viewBox="0 0 100 100" width="64px" height="64px"  xmlns="http://www.w3.org/2000/svg" version="1.1">
                    <defs> 
                        <linearGradient id="sw-gradient" x1="0" x2="1" y1="1" y2="0">
                            <stop id="stop1" stop-color="rgba(248, 117, 55, 1)" offset="0%" style="--darkreader-inline-stopcolor: #a93a06;" data-darkreader-inline-stopcolor=""></stop>
                            <stop id="stop2" stop-color="rgba(255, 158.795, 0, 1)" offset="100%" style="--darkreader-inline-stopcolor: #cc7f00;" data-darkreader-inline-stopcolor=""></stop>
                        </linearGradient>
                    </defs>
                <path fill="url(#sw-gradient)" d="M25.5,-27.3C31.7,-19.3,34.5,-9.6,34.1,-0.4C33.8,8.9,30.3,17.9,24.1,21.5C17.9,25.1,8.9,23.4,-0.1,23.6C-9.2,23.7,-18.5,25.7,-23.3,22.1C-28.1,18.5,-28.5,9.2,-27.6,0.9C-26.8,-7.5,-24.6,-15,-19.8,-23C-15,-31,-7.5,-39.5,1.1,-40.5C9.6,-41.6,19.3,-35.3,25.5,-27.3Z" width="100%" height="100%" transform="translate(50 50)" style="transition: all 0.3s ease 0s;" stroke-width="0" stroke="url(#sw-gradient)"></path>
              </svg>